<svg version="1.1" id="Layer_1" xmlns="http://www.w3.org/2000/svg" x="0" y="0" viewBox="0 0 100 100" xml:space="preserve"><style>.st0{opacity:.1}.st1{fill:#fff}.st4{fill:#0c9ec7}</style><g class="st0"><path d="M77 22.4v48.9c0 8.2-6.6 14.8-14.8 14.8H28c-8.2 0-14.8-6.6-14.8-14.8V22.4c0-8.2 6.6-14.8 14.8-14.8h34.2c8.2 0 14.8 6.7 14.8 14.8z"/><path d="M49.6 38.5c-.1 2.5-1.2 4.8-2.8 6.5-1.8 1.8-4.2 2.9-6.9 2.9H13.3c-.1 0-.1 0-.1-.1V28.4c0-.1 0-.1.1-.1h26c5.6 0 10.6 4.6 10.3 10.2zm17.2 21.8H23.4c-.8 0-1.5-.7-1.5-1.5s.7-1.5 1.5-1.5h43.4c.8 0 1.5.7 1.5 1.5s-.7 1.5-1.5 1.5zm.1 4.9H23.5c-.8 0-1.5-.7-1.5-1.5s.7-1.5 1.5-1.5h43.4c.8 0 1.5.7 1.5 1.5s-.7 1.5-1.5 1.5zm0 4.9H23.5c-.8 0-1.5-.7-1.5-1.5s.7-1.5 1.5-1.5h43.4c.8 0 1.5.7 1.5 1.5s-.7 1.5-1.5 1.5zm.1 4.8H23.6c-.8 0-1.5-.7-1.5-1.5s.7-1.5 1.5-1.5H67c.8 0 1.5.7 1.5 1.5 0 .9-.7 1.5-1.5 1.5z"/><path class="st0" d="M77 59.4v12c0 8.1-6.6 14.7-14.7 14.7h-5.4c-.7-2-1.1-4.2-1.1-6.5 0-11.2 9-20.2 20.2-20.2h1z"/><circle cx="76" cy="79.6" r="18.8"/><path d="M76.3 90.3c-2 0-3.5-1.6-3.5-3.5v-16c0-2 1.6-3.5 3.5-3.5 2 0 3.5 1.6 3.5 3.5v16c.1 1.9-1.5 3.5-3.5 3.5z"/><path d="M76.7 93l6.7-8.8c.3-.4 0-.9-.4-.9H69.6c-.5 0-.7.5-.4.9l6.7 8.8c.2.2.6.2.8 0zM23 39.2v3.2h-1.9v-9.2h3.6c.7 0 1.3.1 1.8.4.5.3.9.6 1.2 1.1.3.5.4 1 .4 1.6 0 .9-.3 1.6-.9 2.1-.6.5-1.5.8-2.5.8H23zm0-1.5h1.7c.5 0 .9-.1 1.1-.4s.4-.6.4-1-.1-.8-.4-1.1c-.3-.3-.6-.4-1.1-.4H23v2.9zm6.4 4.7v-9.2h2.8c.8 0 1.5.2 2.2.5.6.4 1.1.9 1.5 1.5s.5 1.4.5 2.3v.4c0 .9-.2 1.6-.5 2.3-.4.7-.8 1.2-1.5 1.5-.6.4-1.4.5-2.2.6h-2.8zm1.9-7.6v6.1h.9c.7 0 1.3-.2 1.7-.7.4-.5.6-1.2.6-2.1v-.5c0-.9-.2-1.6-.6-2.1-.4-.5-.9-.7-1.7-.7h-.9zm12 3.9h-3.6v3.7h-1.9v-9.2h6v1.5h-4.1v2.4h3.6v1.6z"/></g><path class="st1" d="M73 19.4v48.9c0 8.2-6.6 14.8-14.8 14.8H24c-8.2 0-14.8-6.6-14.8-14.8V19.4c0-8.2 6.6-14.8 14.8-14.8h34.2c8.2 0 14.8 6.7 14.8 14.8z"/><path d="M45.6 35.5c-.1 2.5-1.2 4.8-2.8 6.5-1.8 1.8-4.2 2.9-6.9 2.9H9.3c-.1 0-.1 0-.1-.1V25.4c0-.1 0-.1.1-.1h26c5.6 0 10.6 4.6 10.3 10.2z" fill="#c70d1a"/><path d="M62.8 57.3H19.4c-.8 0-1.5-.7-1.5-1.5s.7-1.5 1.5-1.5h43.4c.8 0 1.5.7 1.5 1.5s-.7 1.5-1.5 1.5zm.1 4.9H19.5c-.8 0-1.5-.7-1.5-1.5s.7-1.5 1.5-1.5h43.4c.8 0 1.5.7 1.5 1.5s-.7 1.5-1.5 1.5zm0 4.9H19.5c-.8 0-1.5-.7-1.5-1.5s.7-1.5 1.5-1.5h43.4c.8 0 1.5.7 1.5 1.5s-.7 1.5-1.5 1.5zm.1 4.8H19.6c-.8 0-1.5-.7-1.5-1.5s.7-1.5 1.5-1.5H63c.8 0 1.5.7 1.5 1.5 0 .9-.7 1.5-1.5 1.5z" fill="#dadada"/><path class="st0" d="M73 56.4v12c0 8.1-6.6 14.7-14.7 14.7h-5.4c-.7-2-1.1-4.2-1.1-6.5 0-11.2 9-20.2 20.2-20.2h1z"/><circle class="st1" cx="72" cy="76.6" r="18.8"/><path class="st4" d="M72.3 87.3c-2 0-3.5-1.6-3.5-3.5v-16c0-2 1.6-3.5 3.5-3.5 2 0 3.5 1.6 3.5 3.5v16c.1 1.9-1.5 3.5-3.5 3.5z"/><path class="st4" d="M72.7 90l6.7-8.8c.3-.4 0-.9-.4-.9H65.6c-.5 0-.7.5-.4.9l6.7 8.8c.2.2.6.2.8 0z"/><path class="st1" d="M19 36.2v3.2h-1.9v-9.2h3.6c.7 0 1.3.1 1.8.4.5.3.9.6 1.2 1.1.3.5.4 1 .4 1.6 0 .9-.3 1.6-.9 2.1-.6.5-1.5.8-2.5.8H19zm0-1.5h1.7c.5 0 .9-.1 1.1-.4s.4-.6.4-1-.1-.8-.4-1.1c-.3-.3-.6-.4-1.1-.4H19v2.9zm6.4 4.7v-9.2h2.8c.8 0 1.5.2 2.2.5.6.4 1.1.9 1.5 1.5.4.7.5 1.4.5 2.3v.4c0 .9-.2 1.6-.5 2.3-.4.7-.8 1.2-1.5 1.5-.6.4-1.4.5-2.2.6h-2.8zm1.9-7.6v6.1h.9c.7 0 1.3-.2 1.7-.7s.6-1.2.6-2.1v-.5c0-.9-.2-1.6-.6-2.1-.4-.5-.9-.7-1.7-.7h-.9zm12 3.9h-3.6v3.7h-1.9v-9.2h6v1.5h-4.1v2.4h3.6v1.6z"/></svg>